/vscmnt/brussel_pixiu_data/_data_brussel/112/vsc11236/PredSimResults/SUBJ04mtu3D/worker8.mot
version=1
nRows=4
nColumns=50
inDegrees=yes
endheader
                time	         pelvis_tilt	         pelvis_list	     pelvis_rotation	           pelvis_tx	           pelvis_ty	           pelvis_tz	       hip_flexion_r	     hip_adduction_r	      hip_rotation_r	        knee_angle_r	       ankle_angle_r	         mtp_angle_r	       hip_flexion_l	     hip_adduction_l	      hip_rotation_l	        knee_angle_l	       ankle_angle_l	         mtp_angle_l	    lumbar_extension	      lumbar_bending	     lumbar_rotation	 ercspn_r/activation	 intobl_r/activation	 extobl_r/activation	    abd_r/activation	    add_r/activation	hamstrings_r/activation	bifemsh_r/activation	glut_max_r/activation	iliopsoas_r/activation	rect_fem_r/activation	  vasti_r/activation	gastroc_r/activation	 soleus_r/activation	tib_ant_r/activation	 ercspn_l/activation	 intobl_l/activation	 extobl_l/activation	    abd_l/activation	    add_l/activation	hamstrings_l/activation	bifemsh_l/activation	glut_max_l/activation	iliopsoas_l/activation	rect_fem_l/activation	  vasti_l/activation	gastroc_l/activation	 soleus_l/activation	tib_ant_l/activation	
          2.14306880	         -3.55799473	          0.25681965	        -10.04800213	          2.01448467	          0.87715715	          0.00636839	        -12.80120386	         -1.85094036	         -3.93191207	         -9.33390452	         10.24027220	         27.45230601	         28.96494832	         -2.41601820	         -6.63549163	         -6.46960971	          3.11247127	          0.24381228	        -13.39039601	          3.80059828	          7.37398994	          0.00999999	          0.00999999	          0.00999999	          0.05213972	          0.00999999	          0.01532936	          0.16743189	          0.01532937	          0.00999999	          0.00999999	          0.00999999	          0.37798925	          0.20271655	          0.00999999	          0.04528684	          0.23052379	          0.04391492	          0.00999999	          0.24044713	          0.07231289	          0.01000000	          0.01542175	          0.13109454	          0.02572794	          0.04578816	          0.00999999	          0.00999999	          0.29869318	
          2.15735592	         -3.61451615	          0.30016982	         -9.68876617	          2.03220270	          0.87495726	          0.00568796	        -13.47911176	         -2.02301992	         -4.81243041	        -10.18962659	          9.61493483	         29.05938980	         28.59933135	         -2.14767472	         -6.97956730	         -7.59864745	          2.74121912	          0.22425466	        -12.84979017	          3.10370779	          7.27888467	          0.00999999	          0.00999999	          0.00999999	          0.04211205	          0.00999999	          0.01238117	          0.13523088	          0.01238118	          0.03058370	          0.00999999	          0.00999999	          0.34939720	          0.19005353	          0.00999999	          0.03657714	          0.21053980	          0.03546907	          0.03368615	          0.19420361	          0.06477910	          0.01000005	          0.05114339	          0.10588204	          0.02077987	          0.03698205	          0.01238118	          0.01238118	          0.32801208	
          2.17164305	         -3.65405552	          0.40686010	         -9.25909050	          2.05017866	          0.87314152	          0.00493373	        -13.96406437	         -2.26714524	         -5.74177735	        -11.44058016	          8.85316383	         30.70671327	         28.13585607	         -1.82326428	         -7.35281527	         -8.55513314	          2.09453922	          0.21442652	        -12.29698304	          2.30427917	          7.14344461	          0.02939864	          0.00999999	          0.00999999	          0.03401293	          0.00999999	          0.00999999	          0.10922287	          0.00999999	          0.02571210	          0.00999999	          0.00999999	          0.31147324	          0.17101061	          0.00999999	          0.02954251	          0.17004814	          0.02864755	          0.06581438	          0.15685378	          0.05973868	          0.01003737	          0.05976690	          0.08551848	          0.01678342	          0.07867998	          0.00999999	          0.00999999	          0.37890817	
          2.18593017	         -3.67915488	          0.56027117	         -8.76303012	          2.06816962	          0.87197817	          0.00407540	        -14.16703770	         -2.57946045	         -6.72194909	        -13.20321579	          7.89867681	         32.34720617	         27.59270423	         -1.44458682	         -7.76258655	         -9.38840647	          1.53329361	          0.18640688	        -11.76525061	          1.43024490	          6.96931990	          0.05284945	          0.00999999	          0.00999999	          0.02747146	          0.00999999	          0.00999999	          0.08821679	          0.00999999	          0.02076707	          0.00999999	          0.00999999	          0.25156976	          0.13849331	          0.00999999	          0.02789843	          0.13734397	          0.02313797	          0.10500843	          0.12668718	          0.05764710	          0.01000000	          0.05648191	          0.06907131	          0.01355558	          0.10875222	          0.00999999	          0.00999999	          0.40719492	
